<?xml version="1.0" standalone="no"?>
<!DOCTYPE svg PUBLIC "-//W3C//DTD SVG 20010904//EN"
 "http://www.w3.org/TR/2001/REC-SVG-20010904/DTD/svg10.dtd">
<svg version="1.0" xmlns="http://www.w3.org/2000/svg"
 width="102.000000pt" height="101.000000pt" viewBox="0 0 102.000000 101.000000"
 preserveAspectRatio="xMidYMid meet">

<g transform="translate(0.000000,101.000000) scale(0.100000,-0.100000)"
fill="#000000" stroke="none">
<path d="M10 670 l0 -340 235 0 235 0 -1 -47 0 -48 -109 -89 c-96 -79 -107
-91 -97 -107 7 -11 16 -19 20 -19 5 0 49 34 98 76 l89 75 0 -80 0 -81 30 0 30
0 0 81 0 80 89 -75 c49 -42 93 -76 98 -76 4 0 13 9 20 19 11 17 0 29 -98 110
-109 91 -109 92 -109 136 l0 45 235 0 235 0 0 340 0 340 -500 0 -500 0 0 -340z
m940 0 l0 -290 -440 0 -440 0 0 290 0 290 440 0 440 0 0 -290z"/>
<path d="M690 865 c0 -23 3 -25 50 -25 28 0 50 -3 50 -7 0 -12 -114 -123 -126
-123 -10 0 -91 55 -150 101 -8 6 -39 -38 -98 -136 -48 -80 -89 -145 -92 -145
-3 0 -40 25 -81 55 -59 43 -79 53 -89 44 -26 -22 -14 -37 83 -108 76 -55 100
-68 109 -58 6 6 46 71 89 142 43 72 80 132 81 133 1 2 36 -21 77 -51 l74 -55
79 79 c43 43 82 79 86 79 5 0 8 -22 8 -50 0 -47 2 -50 25 -50 l25 0 0 100 0
100 -100 0 -100 0 0 -25z"/>
</g>
</svg>
